<?xml version="1.0" encoding="iso-8859-1"?>
<!-- Generator: Adobe Illustrator 18.1.1, SVG Export Plug-In . SVG Version: 6.00 Build 0)  -->
<svg version="1.1" id="Capa_1" xmlns="http://www.w3.org/2000/svg" xmlns:xlink="http://www.w3.org/1999/xlink" x="0px" y="0px"
	 viewBox="0 0 60.316 60.316" style="enable-background:new 0 0 60.316 60.316;" xml:space="preserve">
<g>
	<g>
		<path style="fill:#010002;" d="M27.038,22.108c0.103,0.133,0.213,0.244,0.326,0.346c0.11,3.194-0.193,8.194-0.337,9.745
			l8.946-0.057c0.016-0.164,0.264-2.842,0.359-5.912c0.566,0.49,1.137,0.978,1.699,1.475c1.887,1.664,4.256,0.003,3.935-2.29
			c-0.289-2.061-0.36-4.154-0.919-6.169c-0.744-2.681-4.618-1.851-4.624,0.569c-0.052-0.056-0.104-0.106-0.154-0.163
			c-0.101-0.113-0.203-0.202-0.308-0.289c-0.709-1.79-2.521-2.985-4.541-2.822c-0.758,0.061-1.456,0.31-2.056,0.693
			c-1.919-2.946-3.326-6.131-4.316-9.556c-0.844-2.914-5.238-1.223-4.399,1.676C21.984,13.973,24.097,18.295,27.038,22.108z"/>
		<ellipse style="fill:#010002;" cx="11.113" cy="37.41" rx="2.772" ry="0.744"/>
		<ellipse style="fill:#010002;" cx="27.263" cy="37.41" rx="2.773" ry="0.744"/>
		<path style="fill:#010002;" d="M59.56,33.174l-59.049-0.03L0,42.607l60.314,0.029L59.56,33.174z M11.389,39.1
			c-3.265,0-5.912-0.711-5.912-1.59c0-0.877,2.647-1.588,5.912-1.588c3.266,0,5.913,0.711,5.913,1.588
			C17.302,38.389,14.655,39.1,11.389,39.1z M27.263,39.1c-3.266,0-5.913-0.711-5.913-1.59c0-0.877,2.647-1.588,5.913-1.588
			c3.265,0,5.913,0.711,5.913,1.588C33.176,38.389,30.528,39.1,27.263,39.1z M37.793,39.832h-1.139v-5.163h1.139V39.832z
			 M40.955,39.832h-1.14v-5.163h1.14V39.832z M44.371,39.832h-1.137v-5.163h1.137V39.832z M47.662,39.832h-1.14v-5.163h1.14V39.832z
			 M50.827,39.832h-1.14v-5.163h1.14V39.832z M53.799,39.832H52.66v-5.163h1.139V39.832z"/>
		<polygon style="fill:#010002;" points="0.002,43.181 0.509,54.721 59.556,54.721 60.316,43.181 		"/>
		<rect x="36.858" y="35.372" style="fill:#010002;" width="0.715" height="1.202"/>
		<rect x="40.035" y="37.743" style="fill:#010002;" width="0.711" height="1.202"/>
		<rect x="43.438" y="35.056" style="fill:#010002;" width="0.715" height="1.203"/>
		<rect x="46.737" y="36.542" style="fill:#010002;" width="0.715" height="1.201"/>
		<rect x="49.86" y="35.056" style="fill:#010002;" width="0.715" height="1.203"/>
		<rect x="52.832" y="34.897" style="fill:#010002;" width="0.715" height="1.201"/>
		<path style="fill:#010002;" d="M28.756,14.262v0.041c0,0.558,0.454,1.011,1.013,1.011c0.545,0,0.986-0.432,1.009-0.97
			c0.783,1.562,2.506,2.519,4.328,2.247c1.391-0.206,2.516-1.082,3.102-2.25c0.021,0.54,0.465,0.973,1.012,0.973
			c0.561,0,1.012-0.453,1.012-1.011v-0.041c0.365,0,0.661-0.295,0.661-0.661v-2.645c0-0.364-0.296-0.662-0.661-0.662v-0.04
			c0-0.383-0.217-0.712-0.527-0.884c-0.723-2.189-2.779-3.775-5.207-3.775c-2.426,0-4.486,1.586-5.208,3.775
			c-0.313,0.172-0.53,0.501-0.53,0.884v0.04c-0.364,0-0.661,0.297-0.661,0.662v2.645C28.095,13.966,28.391,14.262,28.756,14.262z
			 M34.493,6.607c1.881,0,3.49,1.168,4.15,2.814c-0.266,0.183-0.438,0.487-0.438,0.832v0.352c-0.787-1.558-2.504-2.512-4.324-2.241
			c-1.389,0.207-2.512,1.078-3.1,2.242v-0.353c0-0.345-0.175-0.649-0.438-0.832C31.002,7.775,32.614,6.607,34.493,6.607z"/>
	</g>
</g>
<g>
</g>
<g>
</g>
<g>
</g>
<g>
</g>
<g>
</g>
<g>
</g>
<g>
</g>
<g>
</g>
<g>
</g>
<g>
</g>
<g>
</g>
<g>
</g>
<g>
</g>
<g>
</g>
<g>
</g>
</svg>
