<?xml version="1.0" encoding="utf-8"?>

<!DOCTYPE svg PUBLIC "-//W3C//DTD SVG 1.1//EN" "http://www.w3.org/Graphics/SVG/1.1/DTD/svg11.dtd">
<!-- Uploaded to: SVG Repo, www.svgrepo.com, Generator: SVG Repo Mixer Tools -->
<svg height="800px" width="800px" version="1.1" id="_x32_" xmlns="http://www.w3.org/2000/svg" xmlns:xlink="http://www.w3.org/1999/xlink" 
	 viewBox="0 0 512 512"  xml:space="preserve">
<style type="text/css">
	.st0{fill:#000000;}
</style>
<g>
	<path class="st0" d="M0,366.061c0,37.182,34.805,67.33,77.738,67.33h329.528c42.937,0,77.741-30.149,77.741-67.33v-0.858H0V366.061
		z"/>
	<path class="st0" d="M488.282,114.821c-14.586-14.622-34.971-23.718-57.266-23.718c-2.389,0-8.81,0-16.257,0V78.609H67.339v115.411
		c0,56.908,25.096,107.902,64.782,142.663h217.852c26.276-23.013,46.092-53.161,56.527-87.422c7.751,2.46,15.995,3.818,24.516,3.811
		c22.294,0.007,42.679-9.098,57.266-23.719c14.622-14.59,23.731-34.975,23.718-57.265
		C512.012,149.797,502.908,129.412,488.282,114.821z M457.557,198.615c-6.866,6.842-16.106,11.003-26.541,11.003
		c-6.021,0-11.637-1.437-16.642-3.922c0.234-3.874,0.384-7.748,0.384-11.677v-59.464c7.447,0,13.868,0,16.257,0
		c10.435,0.024,19.675,4.159,26.541,11.002c6.826,6.858,10.983,16.098,10.99,26.529C468.54,182.517,464.384,191.773,457.557,198.615
		z"/>
</g>
</svg>