<?xml version="1.0" standalone="no"?>
<!DOCTYPE svg PUBLIC "-//W3C//DTD SVG 20010904//EN"
 "http://www.w3.org/TR/2001/REC-SVG-20010904/DTD/svg10.dtd">
<svg version="1.0" xmlns="http://www.w3.org/2000/svg"
 width="4817.000000pt" height="1521.000000pt" viewBox="0 0 4817.000000 1521.000000"
 preserveAspectRatio="xMidYMid meet">

<g transform="translate(0.000000,1521.000000) scale(0.100000,-0.100000)"
fill="#000000" stroke="none">
<path d="M0 7605 l0 -7605 24085 0 24085 0 0 7605 0 7605 -24085 0 -24085 0 0
-7605z m7770 4785 c1260 -420 2636 -1462 3592 -2720 553 -728 937 -1464 1134
-2171 l36 -129 -28 -33 c-34 -41 -121 -117 -178 -156 -49 -34 -193 -112 -216
-116 -8 -2 -28 -8 -45 -15 -16 -6 -32 -11 -35 -12 -3 0 -18 -5 -35 -12 -16 -6
-36 -12 -42 -11 -7 0 -60 95 -117 211 -436 888 -1064 1758 -1836 2548 -837
856 -1764 1545 -2710 2014 -129 64 -238 120 -241 125 -4 5 7 43 22 85 16 43
29 79 29 82 0 8 73 154 79 160 3 3 23 31 44 63 20 31 68 89 105 127 l68 70
114 -31 c63 -17 180 -52 260 -79z m-3128 -2075 c259 -27 449 -65 708 -141 919
-271 1938 -898 2811 -1730 1245 -1188 2066 -2630 2189 -3843 15 -151 13 -461
-5 -593 -40 -305 -145 -582 -299 -788 -79 -105 -226 -248 -329 -318 l-77 -53
-55 11 c-30 6 -65 13 -77 14 -13 2 -34 6 -48 10 -14 3 -36 8 -50 11 -14 2 -67
15 -117 29 -51 13 -93 22 -93 19 0 -3 -6 -1 -13 5 -7 6 -24 13 -37 15 -14 2
-32 6 -40 9 -15 6 -370 121 -380 123 -3 1 -18 7 -35 14 -16 7 -34 14 -40 15
-5 2 -21 8 -35 14 -93 41 -367 154 -378 155 -9 1 -28 -37 -52 -106 -21 -59
-58 -142 -82 -184 -50 -88 -157 -224 -209 -265 l-35 -28 -140 39 c-1060 301
-2201 1033 -3160 2031 -894 930 -1536 1990 -1798 2967 l-24 92 76 73 c127 121
269 204 440 259 75 24 81 31 58 64 -7 11 -14 25 -15 30 -1 6 -22 60 -47 120
-26 61 -69 169 -95 240 -27 72 -52 137 -56 145 -3 8 -7 18 -8 23 -2 4 -4 9 -5
12 -1 3 -4 10 -5 15 -1 6 -4 12 -5 15 -1 3 -4 10 -5 15 -1 6 -4 12 -5 15 -1 3
-4 10 -5 15 -1 6 -4 12 -5 15 -1 3 -4 10 -5 15 -1 6 -3 12 -4 15 0 3 -1 7 -2
10 0 2 -16 55 -35 117 -19 62 -37 124 -40 138 -3 14 -14 59 -25 100 -11 41
-22 88 -24 104 -2 15 -8 38 -11 50 -8 22 -9 29 -19 91 -3 22 -8 47 -11 56 -5
18 79 140 164 237 232 265 607 442 1037 490 127 15 408 13 557 -3z"/>
</g>
</svg>
