<?xml version="1.0" encoding="iso-8859-1"?>
<!-- Generator: Adobe Illustrator 18.0.0, SVG Export Plug-In . SVG Version: 6.00 Build 0)  -->
<!DOCTYPE svg PUBLIC "-//W3C//DTD SVG 1.1//EN" "http://www.w3.org/Graphics/SVG/1.1/DTD/svg11.dtd">
<svg version="1.1" id="Capa_1" xmlns="http://www.w3.org/2000/svg" xmlns:xlink="http://www.w3.org/1999/xlink" x="0px" y="0px"
	 viewBox="0 0 297 297" style="enable-background:new 0 0 297 297;" xml:space="preserve">
<g>
	<path d="M222.743,142.348c-5.329-1.725-11.035,1.193-12.759,6.514c-4,12.355-11.864,21.67-18.292,21.67
		c-6.428,0-14.292-9.314-18.293-21.67c-1.724-5.32-7.436-8.236-12.759-6.514c-5.322,1.725-8.241,7.434-6.518,12.758
		c5.334,16.463,18.372,35.686,37.569,35.686c19.198,0,32.235-19.223,37.565-35.686C230.982,149.779,228.064,144.07,222.743,142.348z
		"/>
	<path d="M176.675,85.107c-1.758-5.309-7.487-8.193-12.8-6.434L126.925,90.9c-5.313,1.76-8.194,7.488-6.438,12.801
		c1.409,4.254,5.367,6.951,9.617,6.951c1.053,0,2.127-0.166,3.185-0.516L170.24,97.91C175.551,96.152,178.432,90.422,176.675,85.107
		z"/>
	<path d="M256.459,90.9L219.51,78.674c-5.31-1.754-11.041,1.125-12.8,6.434c-1.757,5.314,1.124,11.045,6.434,12.803l36.949,12.227
		c1.059,0.35,2.131,0.516,3.185,0.516c4.251,0,8.21-2.697,9.616-6.951C264.65,98.389,261.77,92.66,256.459,90.9z"/>
	<path d="M105.308,195.412c-19.196,0-32.234,19.223-37.565,35.686c-1.724,5.32,1.192,11.033,6.515,12.758
		c5.316,1.721,11.034-1.191,12.759-6.518c4.001-12.352,11.865-21.666,18.292-21.666c6.428,0,14.292,9.314,18.293,21.666
		c1.389,4.287,5.362,7.012,9.635,7.012c1.035,0,2.089-0.158,3.124-0.494c5.322-1.725,8.241-7.438,6.518-12.758
		C137.543,214.635,124.505,195.412,105.308,195.412z"/>
	<path d="M89.433,148.988c-2.809-4.84-9.013-6.484-13.846-3.672l-30.62,17.789c-4.839,2.811-6.479,9.01-3.671,13.848
		c1.882,3.236,5.279,5.045,8.771,5.045c1.727,0,3.479-0.445,5.078-1.373l30.619-17.791C90.6,160.025,92.243,153.824,89.433,148.988z
		"/>
	<path d="M264.957,11.305c-8.598,0-18.209,1.926-29.339,4.154c-13.255,2.656-28.281,5.668-43.926,5.668
		c-15.648,0-30.674-3.012-43.932-5.67c-11.126-2.226-20.736-4.152-29.335-4.152c-21.262,0-32.042,12.684-32.042,37.697
		c0,12.486,2.416,28.473,6.62,45.613c-14.516-1.004-27.739-4.818-39.598-8.25c-17.04-4.93-31.753-9.189-42.611-1.025
		C1.119,92.613,0,106.242,0,115.861c0,27.482,11.646,68.809,28.981,102.826c22.019,43.211,49.124,67.008,76.326,67.008
		c31.401,0,55.513-30.098,70.576-56.373c5.047,1.816,10.317,2.814,15.809,2.814c34.848,0,60.83-40.236,76.491-73.994
		C285.149,121.57,297,76.688,297,49.002C297,23.988,286.22,11.305,264.957,11.305z M105.308,265.435
		c-18.917,0-40.156-20.391-58.275-55.947c-15.762-30.934-26.771-69.436-26.771-93.627c0-12.15,2.599-14.244,2.707-14.326
		c2.775-2.086,15.51,1.604,24.809,4.291c13.983,4.047,31.311,9.043,50.936,9.287c4.554,14.615,10.164,29.4,16.488,43.029
		c10.155,21.895,24.656,46.51,43.1,61.109C141.229,249.057,122.464,265.435,105.308,265.435z M249.803,149.617
		c-18.355,39.566-39.536,62.262-58.11,62.262c-18.575,0-39.756-22.695-58.111-62.262c-17.684-38.119-26.937-79.469-26.937-100.615
		c0-17.437,5.199-17.437,11.781-17.437c6.589,0,15.286,1.742,25.357,3.76c14.181,2.842,30.252,6.063,47.909,6.063
		c17.655,0,33.727-3.219,47.906-6.063c10.072-2.018,18.771-3.76,25.358-3.76c6.583,0,11.782,0,11.782,17.437
		C276.739,70.148,267.486,111.498,249.803,149.617z"/>
</g>
<g>
</g>
<g>
</g>
<g>
</g>
<g>
</g>
<g>
</g>
<g>
</g>
<g>
</g>
<g>
</g>
<g>
</g>
<g>
</g>
<g>
</g>
<g>
</g>
<g>
</g>
<g>
</g>
<g>
</g>
</svg>
