<?xml version="1.0" encoding="UTF-8" standalone="no"?>
<svg
   xmlns:dc="http://purl.org/dc/elements/1.1/"
   xmlns:cc="http://creativecommons.org/ns#"
   xmlns:rdf="http://www.w3.org/1999/02/22-rdf-syntax-ns#"
   xmlns:svg="http://www.w3.org/2000/svg"
   xmlns="http://www.w3.org/2000/svg"
   xml:space="preserve"
   style="enable-background:new 0 0 60.316 60.316;"
   viewBox="0 0 60.316 60.316"
   y="0px"
   x="0px"
   id="Capa_1"
   version="1.1"><metadata
   id="metadata65"><rdf:RDF><cc:Work
       rdf:about=""><dc:format>image/svg+xml</dc:format><dc:type
         rdf:resource="http://purl.org/dc/dcmitype/StillImage" /><dc:title></dc:title></cc:Work></rdf:RDF></metadata><defs
   id="defs63" />

<g
   id="g30">
</g>
<g
   id="g32">
</g>
<g
   id="g34">
</g>
<g
   id="g36">
</g>
<g
   id="g38">
</g>
<g
   id="g40">
</g>
<g
   id="g42">
</g>
<g
   id="g44">
</g>
<g
   id="g46">
</g>
<g
   id="g48">
</g>
<g
   id="g50">
</g>
<g
   id="g52">
</g>
<g
   id="g54">
</g>
<g
   id="g56">
</g>
<g
   id="g58">
</g>
<g
   style="stroke-width:0.38464466"
   transform="matrix(2.5998021,0,0,2.5998021,-1.4987115,-2.6411872)"
   id="g888"><g
     id="g6"
     transform="matrix(0.3896875,0,0,0.3896875,8.085,14.9625)"
     style="stroke-width:0.98705924"><path
       d="M 0,0 H 24 V 24 H 0 Z"
       id="path2-8"
       style="fill:none;stroke-width:0.98705924" /><path
       d="m 17,2 v 2 h 3.007 C 20.555,4 21,4.445 21,4.993 V 21.007 C 21,21.555 20.555,22 20.007,22 H 3.993 C 3.445,22 3,21.555 3,21.007 V 4.993 C 3,4.445 3.445,4 3.993,4 H 7 V 2 Z M 7,6 H 5 V 20 H 19 V 6 H 17 V 8 H 7 Z m 2,10 v 2 H 7 v -2 z m 0,-3 v 2 H 7 v -2 z m 0,-3 v 2 H 7 V 10 Z M 15,4 H 9 v 2 h 6 z"
       id="path4"
       style="stroke-width:0.98705924" /></g><g
     aria-label="♫♪"
     style="font-style:normal;font-variant:normal;font-weight:normal;font-stretch:normal;font-size:17.9496994px;line-height:1.25;font-family:'Arial Rounded MT Bold';-inkscape-font-specification:'Arial Rounded MT Bold, ';text-align:center;letter-spacing:0px;word-spacing:0px;text-anchor:middle;fill:#000000;fill-opacity:1;stroke:none;stroke-width:0.38464463"
     id="text4603"><path
       d="M 5.4279188,3.483886 12.404462,1.3102896 v 9.7110674 q 0,1.086799 -0.280464,1.638962 -0.271699,0.552164 -0.937802,0.911508 -0.657337,0.359345 -1.4899649,0.359345 -0.9553306,0 -1.5250233,-0.543399 -0.5696926,-0.552164 -0.5696926,-1.419849 0,-0.876451 0.6748667,-1.507495 0.6748666,-0.6398083 1.7441361,-0.6398083 0.35058,0 0.613515,0.061352 0.271699,0.061352 0.87645,0.3155213 V 3.851995 L 6.2956045,5.4734278 v 7.3271232 q 0,1.060505 -0.2804641,1.656491 -0.280464,0.587222 -0.9640951,0.937802 -0.6836312,0.35058 -1.4899653,0.35058 -0.9553307,0 -1.5162588,-0.543399 -0.5521636,-0.534635 -0.5521636,-1.402321 0,-0.920272 0.6661021,-1.542552 0.6661021,-0.631044 1.7441358,-0.631044 0.6836312,0 1.5250233,0.403167 z"
       style="stroke-width:0.38464463"
       id="path4612" /><path
       d="m 18.469497,2.6775518 h 0.333051 q 1.507495,0 1.989542,0.122703 0.692396,0.1752901 1.218266,0.6748667 0.394403,0.368109 0.62228,1.0429757 0.227877,0.6661021 0.227877,1.5600813 V 6.9809221 H 21.992827 V 6.6040486 q 0,-0.5959862 -0.254171,-1.0079177 Q 21.49325,5.1754348 21.002438,4.9563222 20.36263,4.6758582 19.582589,4.6758582 h -0.245406 v 7.3183588 q 0,1.060505 -0.280464,1.656491 -0.280464,0.587222 -0.964095,0.946566 -0.683631,0.35058 -1.489966,0.35058 -0.95533,0 -1.516258,-0.534634 -0.552164,-0.5434 -0.552164,-1.41985 0,-0.920272 0.666102,-1.542552 0.666102,-0.631044 1.744136,-0.631044 0.683631,0 1.525023,0.403167 z"
       style="stroke-width:0.38464463"
       id="path4614" /></g></g></svg>