<?xml version="1.0" encoding="utf-8"?>
<!-- Uploaded to: SVG Repo, www.svgrepo.com, Generator: SVG Repo Mixer Tools -->
<svg fill="#000000" width="800px" height="800px" viewBox="0 0 32 32" version="1.1" xmlns="http://www.w3.org/2000/svg">
<title>music-notes</title>
<path d="M29.73 0.986c-0.202-0.148-0.455-0.237-0.729-0.237-0.142 0-0.278 0.024-0.405 0.068l0.009-0.003-18.001 6c-0.501 0.171-0.854 0.637-0.854 1.186v0 13.548c-0.78-0.498-1.73-0.795-2.749-0.798h-0.001c-2.9 0-5.25 2.351-5.25 5.25s2.35 5.25 5.25 5.25c2.9 0 5.25-2.351 5.25-5.25v0-10.099l15.5-5.168v7.815c-0.78-0.498-1.73-0.795-2.749-0.798h-0.001c-2.899 0-5.25 2.351-5.25 5.25s2.351 5.25 5.25 5.25c2.899 0 5.25-2.351 5.25-5.25v0-21c-0-0.416-0.203-0.784-0.516-1.011l-0.004-0.002zM7 28.75c-1.519 0-2.75-1.231-2.75-2.75s1.231-2.75 2.75-2.75c1.519 0 2.75 1.231 2.75 2.75v0c-0.002 1.518-1.232 2.748-2.75 2.75h-0zM12.25 8.901l15.5-5.167v4.364l-15.5 5.167zM25 25.75c-1.519 0-2.75-1.231-2.75-2.75s1.231-2.75 2.75-2.75c1.519 0 2.75 1.231 2.75 2.75v0c-0.002 1.518-1.232 2.748-2.75 2.75h-0z"></path>
</svg>