<?xml version="1.0" encoding="UTF-8"?>
<!-- Uploaded to: SVG Repo, www.svgrepo.com, Generator: SVG Repo Mixer Tools -->
<svg width="800px" height="800px" viewBox="-1 0 20 20" version="1.1" xmlns="http://www.w3.org/2000/svg" xmlns:xlink="http://www.w3.org/1999/xlink">
    <title>time / 25 - time, hourglass, sand, top, timer, watch icon </title>
    <g id="Free-Icons" stroke="none" stroke-width="1" fill="none" fill-rule="evenodd">
        <g transform="translate(-156.000000, -748.000000)" id="Group">
            <g transform="translate(153.000000, 746.000000)" id="Shape">
                <path d="M4,3 L4,4.77236651 C4,5.96625907 4.64816908,7.08665789 5.74030881,7.78059385 L18.2596912,15.735299 C19.3518309,16.429235 20,17.5496338 20,18.7435264 L20,21 L4,21 L4,18.7435264 C4,17.5496338 4.64816908,16.429235 5.74030881,15.735299 L18.2596912,7.78059385 C19.3518309,7.08665789 20,5.96625907 20,4.77236651 L20,3 L4,3 Z" stroke="#000000" stroke-width="2" stroke-linecap="round" stroke-linejoin="round">
</path>
                <path d="M11.7926812,9.17832792 L7.66910673,6.04502868 C7.49560596,5.91319407 7.44778491,5.64439211 7.56229541,5.4446427 C7.63196026,5.32312099 7.74997665,5.25 7.87644635,5.25 L16.1235953,5.25 C16.3314779,5.25 16.5,5.44401757 16.5,5.68335038 C16.5,5.82895346 16.4364877,5.96482435 16.3309349,6.04502868 L12.2073604,9.17832792 C12.0815952,9.27389069 11.9184464,9.27389069 11.7926812,9.17832792 Z" fill="#000000">
</path>
            </g>
        </g>
    </g>
</svg>