<?xml version="1.0" encoding="iso-8859-1"?>
<!-- Uploaded to: SVG Repo, www.svgrepo.com, Generator: SVG Repo Mixer Tools -->
<svg fill="#000000" height="800px" width="800px" version="1.1" id="Layer_1" xmlns="http://www.w3.org/2000/svg" xmlns:xlink="http://www.w3.org/1999/xlink" 
	 viewBox="0 0 512 512" xml:space="preserve">
<g>
	<g>
		<g>
			<path d="M256,110.933c-18.825,0-34.133,15.309-34.133,34.133S237.175,179.2,256,179.2s34.133-15.309,34.133-34.133
				S274.825,110.933,256,110.933z"/>
			<path d="M471.996,0H40.004C17.954,0,0,17.946,0,40.004v156.262c0,3.106,1.69,5.973,4.412,7.467L224.58,325.214
				c9.847,5.427,20.625,8.141,31.42,8.141s21.581-2.714,31.42-8.141l220.169-121.481c2.722-1.493,4.412-4.361,4.412-7.467V40.004
				C512,17.946,494.046,0,471.996,0z M256,196.267c-28.237,0-51.2-22.963-51.2-51.2c0-28.237,22.963-51.2,51.2-51.2
				s51.2,22.963,51.2,51.2C307.2,173.303,284.237,196.267,256,196.267z"/>
			<path d="M467.669,253.995c0.973,1.391,1.664,2.978,1.664,4.796v38.4c0,4.71-3.814,8.533-8.533,8.533
				c-4.719,0-8.533-3.823-8.533-8.533v-38.4c0-1.417,0.435-2.688,1.05-3.866c-0.179-0.503-0.213-1.058-0.282-1.596l-157.38,86.827
				c-12.16,6.716-25.882,10.266-39.654,10.266c-13.764,0-27.486-3.55-39.654-10.266L59.452,253.594
				c-0.102,0.64-0.256,1.237-0.512,1.818c0.486,1.033,0.794,2.159,0.794,3.379v38.4c0,4.71-3.814,8.533-8.533,8.533
				s-8.533-3.823-8.533-8.533v-38.4c0-1.442,0.452-2.739,1.084-3.925c-1.596-2.944-1.118-6.912,1.459-9.131L8.533,225.502v246.494
				C8.533,494.054,26.487,512,48.538,512h414.925c22.05,0,40.004-17.946,40.004-40.004V225.51l-37.282,20.565
				C468.164,248.124,468.668,251.341,467.669,253.995z M42.667,335.403c0-4.71,3.814-8.533,8.533-8.533s8.533,3.823,8.533,8.533
				v57.318c0,4.71-3.814,8.533-8.533,8.533s-8.533-3.823-8.533-8.533V335.403z M89.6,477.867H51.2c-4.719,0-8.533-3.823-8.533-8.533
				v-38.4c0-4.71,3.814-8.533,8.533-8.533s8.533,3.823,8.533,8.533V460.8H89.6c4.719,0,8.533,3.823,8.533,8.533
				S94.319,477.867,89.6,477.867z M228.267,477.867h-83.2c-4.719,0-8.533-3.823-8.533-8.533s3.814-8.533,8.533-8.533h83.2
				c4.719,0,8.533,3.823,8.533,8.533S232.986,477.867,228.267,477.867z M366.933,477.867h-83.2c-4.719,0-8.533-3.823-8.533-8.533
				s3.814-8.533,8.533-8.533h83.2c4.719,0,8.533,3.823,8.533,8.533S371.652,477.867,366.933,477.867z M469.333,469.333
				c0,4.71-3.814,8.533-8.533,8.533h-38.4c-4.719,0-8.533-3.823-8.533-8.533s3.814-8.533,8.533-8.533h29.867v-29.867
				c0-4.71,3.814-8.533,8.533-8.533c4.719,0,8.533,3.823,8.533,8.533V469.333z M469.333,392.721c0,4.71-3.814,8.533-8.533,8.533
				c-4.719,0-8.533-3.823-8.533-8.533v-57.318c0-4.71,3.814-8.533,8.533-8.533c4.719,0,8.533,3.823,8.533,8.533V392.721z"/>
		</g>
	</g>
</g>
</svg>