<?xml version="1.0" encoding="iso-8859-1"?>
<!-- Generator: Adobe Illustrator 19.0.0, SVG Export Plug-In . SVG Version: 6.00 Build 0)  -->
<svg version="1.1" id="Capa_1" xmlns="http://www.w3.org/2000/svg" xmlns:xlink="http://www.w3.org/1999/xlink" x="0px" y="0px"
	 viewBox="0 0 490.226 490.226" style="enable-background:new 0 0 490.226 490.226;" xml:space="preserve">
<g>
	<path d="M485.49,396.149l-46.4-113.2c0.6-1.1,16.2-106.6,16.2-106.6c0.5-7.9-3-24-20.8-24h-72.9c-7.6-74-56.5-152.1-116.7-152.1
		s-108.2,78.1-115.7,152.1h-67.7c-7-0.4-22.9,7.3-20.8,24l14,99.2l-49.5,120.6c-23.8,62.8,40,94.9,75,93.8h331.3
		C448.29,490.549,507.39,460.049,485.49,396.149z M245.89,39.849c32.8,0,68.2,55.8,74.9,112.5h-149.7
		C178.09,95.749,213.19,39.849,245.89,39.849z M410.49,193.949l-9.4,62.5H92.69l-9.4-62.5H410.49z M410.49,449.249H80.19
		c-16.6,0.5-44.4-11.5-36.5-37.5l46.9-114.6h309.4l46.9,114.6C455.99,433.949,430.39,449.249,410.49,449.249z"/>
</g>
<g>
</g>
<g>
</g>
<g>
</g>
<g>
</g>
<g>
</g>
<g>
</g>
<g>
</g>
<g>
</g>
<g>
</g>
<g>
</g>
<g>
</g>
<g>
</g>
<g>
</g>
<g>
</g>
<g>
</g>
</svg>
