<?xml version="1.0" encoding="iso-8859-1"?>
<!-- Generator: Adobe Illustrator 17.1.0, SVG Export Plug-In . SVG Version: 6.00 Build 0)  -->
<!DOCTYPE svg PUBLIC "-//W3C//DTD SVG 1.1//EN" "http://www.w3.org/Graphics/SVG/1.1/DTD/svg11.dtd">
<svg version="1.1" id="Capa_1" xmlns="http://www.w3.org/2000/svg" xmlns:xlink="http://www.w3.org/1999/xlink" x="0px" y="0px"
	 viewBox="0 0 96.49 96.49" style="enable-background:new 0 0 96.49 96.49;" xml:space="preserve">
<g>
	<path d="M45.443,22.544c5.975,0,10.836-4.861,10.836-10.836S51.418,0.873,45.443,0.873S34.607,5.733,34.607,11.708
		S39.468,22.544,45.443,22.544z"/>
	<path d="M77.24,93.073l-8.17-8.171V55.577c0.456-0.254,0.846-0.622,1.12-1.078l0.778-1.295c0.844-1.406,0.406-3.267-0.978-4.147
		l-0.92-0.586V21.449c1.579-0.607,2.708-2.129,2.708-3.92v-2.332c0-2.321-1.888-4.209-4.209-4.209c-2.32,0-4.208,1.888-4.208,4.209
		v2.332c0,1.791,1.129,3.314,2.709,3.92v25.114l-7.089-4.512c-0.707-0.449-1.533-1.599-1.734-2.412l-2.982-12.053
		c-0.079-0.318-0.207-0.602-0.369-0.851c-0.496-0.974-1.498-1.649-2.664-1.649h-11.69L27.271,1.782C26.691,0.683,25.551,0,24.295,0
		c-0.508,0-1.016,0.118-1.469,0.342l-2.211,1.094c-0.791,0.391-1.375,1.066-1.646,1.901c-0.271,0.835-0.194,1.726,0.217,2.505
		l14.217,27.001v24.25c-0.025,0.067-0.06,0.129-0.082,0.197l-9.783,30.638c-0.407,1.276-0.283,2.619,0.35,3.781
		s1.694,1.994,2.987,2.343l0.654,0.177c0.428,0.116,0.872,0.175,1.318,0.175c2.251,0,4.296-1.481,4.974-3.603l9.288-29.087h0.771
		l1.694,8.42c0.269,1.335,0.521,3.612,0.552,4.974l0.382,17.203c0.041,1.85,1.452,3.245,3.282,3.245c0.16,0,0.323-0.011,0.488-0.034
		l3.223-0.447c1.921-0.267,3.401-2.06,3.301-3.997L55.9,73.806c-0.076-1.457-0.299-3.815-0.498-5.256l-1.171-19.799l11.838,6.816
		v29.335l-8.17,8.171c-0.586,0.586-0.586,1.536,0,2.121c0.293,0.293,0.677,0.439,1.061,0.439s0.768-0.146,1.061-0.439l6.049-6.049
		v5.845c0,0.829,0.671,1.5,1.5,1.5s1.5-0.671,1.5-1.5v-5.845l6.049,6.049c0.293,0.293,0.677,0.439,1.061,0.439
		s0.768-0.146,1.061-0.439C77.826,94.608,77.826,93.659,77.24,93.073z"/>
</g>
<g>
</g>
<g>
</g>
<g>
</g>
<g>
</g>
<g>
</g>
<g>
</g>
<g>
</g>
<g>
</g>
<g>
</g>
<g>
</g>
<g>
</g>
<g>
</g>
<g>
</g>
<g>
</g>
<g>
</g>
</svg>
