<?xml version="1.0" encoding="iso-8859-1"?>
<!-- Generator: Adobe Illustrator 18.0.0, SVG Export Plug-In . SVG Version: 6.00 Build 0)  -->
<!DOCTYPE svg PUBLIC "-//W3C//DTD SVG 1.1//EN" "http://www.w3.org/Graphics/SVG/1.1/DTD/svg11.dtd">
<svg version="1.1" id="Capa_1" xmlns="http://www.w3.org/2000/svg" xmlns:xlink="http://www.w3.org/1999/xlink" x="0px" y="0px"
	 viewBox="0 0 307.652 307.652" style="enable-background:new 0 0 307.652 307.652;" xml:space="preserve">
<g>
	<g>
		<path d="M76.845,20.697L0,153.8l76.887,133.154h153.659l77.105-133.357l-76.636-132.9H76.845z M216.395,262.286H91.155
			L28.536,153.825l62.619-108.46h125.24l62.619,108.46L216.395,262.286z"/>
	</g>
	<path d="M220.374,140.89c0-4.09-2.836-6.53-7.85-6.53c-2.045,0-3.43,0.197-4.155,0.395v13.127c0.857,0.197,1.913,0.264,3.364,0.264
		C217.077,148.146,220.374,145.44,220.374,140.89z"/>
	<path d="M172.087,134.359c-6.794,0-10.752,6.464-10.752,15.105c0,8.707,4.09,14.842,10.818,14.842
		c6.794,0,10.686-6.465,10.686-15.105C182.839,141.219,179.014,134.359,172.087,134.359z"/>
	<path d="M101.119,62.623l-52.656,91.202l52.656,91.202H206.43l52.656-91.202L206.43,62.623H101.119z M97.085,172.222
		c-5.079,0-10.092-1.318-12.599-2.704l2.045-8.311c2.704,1.386,6.86,2.77,11.148,2.77c4.618,0,7.059-1.913,7.059-4.815
		c0-2.771-2.111-4.354-7.454-6.267c-7.388-2.572-12.203-6.662-12.203-13.127c0-7.585,6.332-13.391,16.82-13.391
		c5.014,0,8.707,1.056,11.346,2.243l-2.242,8.113c-1.781-0.857-4.947-2.11-9.301-2.11s-6.465,1.979-6.465,4.287
		c0,2.837,2.507,4.09,8.245,6.267c7.85,2.902,11.544,6.992,11.544,13.259C115.028,165.89,109.289,172.222,97.085,172.222z
		 M138.841,171.563h-10.093v-36.017h-11.939v-8.443h34.169v8.443h-12.137V171.563z M171.625,172.288
		c-13.192,0-20.91-9.961-20.91-22.626c0-13.324,8.51-23.285,21.637-23.285c13.654,0,21.108,10.225,21.108,22.494
		C193.46,163.449,184.62,172.288,171.625,172.288z M225.585,130.335c2.837,2.243,4.75,5.936,4.75,10.291
		c0,4.354-1.451,8.047-4.09,10.554c-3.431,3.232-8.51,4.684-14.446,4.684c-1.319,0-2.507-0.066-3.43-0.198v15.897h-9.961v-43.866
		c3.101-0.527,7.454-0.923,13.589-0.923C218.198,126.774,222.618,127.961,225.585,130.335z"/>
</g>
<g>
</g>
<g>
</g>
<g>
</g>
<g>
</g>
<g>
</g>
<g>
</g>
<g>
</g>
<g>
</g>
<g>
</g>
<g>
</g>
<g>
</g>
<g>
</g>
<g>
</g>
<g>
</g>
<g>
</g>
</svg>
