<?xml version="1.0" standalone="no"?>
<!DOCTYPE svg PUBLIC "-//W3C//DTD SVG 20010904//EN"
 "http://www.w3.org/TR/2001/REC-SVG-20010904/DTD/svg10.dtd">
<svg version="1.0" xmlns="http://www.w3.org/2000/svg"
 width="480.000000pt" height="480.000000pt" viewBox="0 0 480.000000 480.000000"
 preserveAspectRatio="xMidYMid meet">

<g transform="translate(0.000000,480.000000) scale(0.100000,-0.100000)"
fill="#000000" stroke="none">
<path d="M1480 4114 c0 -9 25 -49 55 -89 30 -41 52 -79 49 -87 -3 -7 -42 -40
-87 -73 -78 -58 -102 -85 -76 -85 7 0 53 27 101 60 49 33 97 60 107 60 10 0
30 -9 45 -21 34 -27 26 -38 -57 -80 -70 -35 -147 -88 -147 -101 0 -17 30 -7
95 33 74 45 148 79 171 79 8 0 26 -11 40 -25 33 -33 22 -47 -49 -71 -83 -27
-170 -69 -191 -92 -27 -31 -15 -28 99 23 126 56 190 73 213 59 37 -23 16 -39
-120 -90 -75 -29 -181 -75 -236 -104 -224 -115 -484 -331 -579 -482 -20 -32
-39 -58 -42 -58 -17 0 -31 27 -31 62 0 34 10 47 118 159 97 101 112 121 88
115 -41 -10 -83 -45 -146 -122 -104 -128 -96 -120 -114 -105 -9 7 -16 23 -16
35 0 24 97 138 164 194 52 43 55 52 20 52 -20 0 -49 -23 -120 -95 -51 -52 -98
-95 -103 -95 -6 0 -18 11 -26 24 -15 23 -15 27 0 50 9 13 48 50 86 82 61 51
81 74 64 74 -24 0 -80 -37 -128 -84 -33 -31 -64 -56 -70 -56 -6 0 -28 19 -47
42 -22 25 -41 39 -48 34 -7 -4 -12 -11 -12 -16 0 -5 36 -52 80 -106 45 -53
124 -159 176 -235 111 -162 143 -189 222 -189 61 0 108 17 163 61 22 17 46 29
53 26 8 -3 30 -36 50 -74 20 -37 93 -135 162 -218 69 -82 130 -158 136 -169 7
-14 4 -37 -13 -90 -31 -96 -33 -255 -5 -303 39 -64 128 -93 229 -73 l63 13 51
-37 c91 -65 161 -79 244 -50 45 17 46 17 111 -15 36 -17 82 -31 101 -31 67 0
122 69 173 215 15 44 29 82 31 84 1 2 28 -23 60 -55 50 -52 59 -68 79 -139 12
-44 25 -90 29 -101 l7 -22 -319 -6 c-654 -14 -773 -20 -819 -44 -41 -21 -86
-70 -97 -107 -12 -38 -38 -272 -71 -644 -32 -347 -33 -377 -19 -413 19 -48 94
-115 143 -128 27 -7 193 -6 542 5 276 8 890 26 1363 40 473 13 883 27 910 31
28 3 62 12 76 20 43 22 94 87 109 137 12 45 8 77 -60 515 -82 532 -88 552
-168 600 l-47 27 -205 0 c-113 0 -367 -4 -565 -9 l-360 -8 -34 123 c-55 199
-147 456 -192 535 -23 40 -72 113 -108 161 -77 103 -497 528 -591 598 -36 26
-112 86 -168 133 -88 71 -103 88 -97 106 17 54 16 75 -8 123 -32 62 -164 211
-286 322 -51 47 -113 111 -137 143 -46 59 -64 71 -64 42z m446 -509 c30 -30
31 -88 2 -93 -17 -3 -108 72 -108 90 0 10 37 26 63 27 10 1 29 -10 43 -24z
m-151 -35 c4 -6 118 -99 253 -207 253 -202 324 -266 562 -508 270 -274 353
-407 424 -680 35 -135 52 -188 130 -404 l67 -183 -21 -42 c-24 -51 -27 -134
-5 -176 9 -17 17 -30 19 -30 3 0 11 -3 20 -6 14 -5 13 1 -4 37 -22 48 -25 94
-10 133 14 38 24 32 43 -27 46 -146 -6 -216 -122 -166 -95 40 -169 156 -193
300 -11 69 -15 76 -67 129 -101 101 -143 212 -123 323 7 35 12 79 12 96 0 47
-22 34 -41 -24 -8 -27 -20 -50 -26 -52 -29 -10 -97 108 -133 232 -29 104 -48
141 -63 126 -8 -8 -6 -30 8 -83 14 -50 20 -105 20 -173 -1 -90 -4 -107 -33
-175 -50 -116 -85 -147 -151 -135 -46 8 -99 41 -103 63 -2 9 2 42 9 72 21 89
28 234 13 269 -7 17 -18 31 -25 31 -10 0 -13 -26 -12 -107 2 -137 -23 -256
-58 -279 -64 -42 -169 -22 -225 42 -30 34 -31 38 -23 97 17 135 4 247 -27 247
-6 0 -10 -50 -10 -120 0 -137 -10 -169 -62 -196 -40 -21 -133 -14 -177 12 -43
25 -55 69 -48 173 14 218 65 211 76 -11 6 -115 12 -141 31 -122 18 18 23 100
10 172 -16 96 -72 208 -157 312 -38 47 -98 121 -134 165 -81 100 -112 163
-117 236 -5 67 8 110 56 191 37 63 37 78 -3 60 -16 -8 -37 -37 -62 -92 -21
-44 -41 -80 -45 -80 -3 0 -20 24 -37 53 -16 28 -41 67 -55 86 -14 19 -26 43
-26 52 0 16 143 127 290 226 86 58 289 151 332 153 9 0 20 -5 23 -10z m-617
-504 c31 -48 52 -91 52 -107 0 -56 -96 -129 -168 -129 -71 0 -132 47 -132 100
1 33 13 53 88 145 81 97 89 97 160 -9z m3152 -1255 c53 -28 69 -58 85 -156 8
-50 15 -92 15 -95 0 -3 -13 -11 -30 -17 -19 -7 -31 -20 -36 -38 -8 -32 44
-427 62 -473 9 -23 25 -38 51 -48 21 -9 39 -17 40 -18 1 -1 9 -46 18 -100 15
-94 15 -101 -3 -134 -36 -70 -61 -75 -377 -84 -154 -4 -516 -14 -805 -23 -740
-21 -1653 -38 -1727 -32 -74 6 -109 26 -129 72 -15 36 -5 151 65 771 30 264
34 280 99 313 41 21 133 27 582 36 140 3 320 8 400 11 l145 5 61 -68 c57 -64
61 -72 72 -141 24 -145 104 -267 208 -318 63 -31 105 -29 153 7 79 58 69 127
-65 471 -10 26 -16 49 -14 52 6 5 632 22 905 24 168 2 194 0 225 -17z m218
-1151 c-7 -11 -19 -22 -28 -25 -8 -4 -4 5 9 19 29 31 36 33 19 6z"/>
</g>
</svg>
