<svg width="235" height="235" xmlns="http://www.w3.org/2000/svg" xmlns:xlink="http://www.w3.org/1999/xlink" xml:space="preserve" overflow="hidden"><defs><clipPath id="clip0"><rect x="961" y="1470" width="235" height="235"/></clipPath></defs><g clip-path="url(#clip0)" transform="translate(-961 -1470)"><path d="M968 1587.5C968 1526.47 1017.47 1477 1078.5 1477 1139.53 1477 1189 1526.47 1189 1587.5 1189 1648.53 1139.53 1698 1078.5 1698 1017.47 1698 968 1648.53 968 1587.5Z" stroke="#FF0000" stroke-width="13.75" stroke-miterlimit="8" fill="none" fill-rule="evenodd"/><path d="M1000 1587C1000 1543.92 1034.92 1509 1078 1509 1121.08 1509 1156 1543.92 1156 1587 1156 1630.08 1121.08 1665 1078 1665 1034.92 1665 1000 1630.08 1000 1587Z" stroke="#FF0000" stroke-width="13.75" stroke-miterlimit="8" fill="#FF0000" fill-rule="evenodd"/></g></svg>